<?xml version="1.0" encoding="iso-8859-1"?>
<!-- Generator: Adobe Illustrator 19.0.0, SVG Export Plug-In . SVG Version: 6.00 Build 0)  -->
<svg version="1.1" id="Layer_1" xmlns="http://www.w3.org/2000/svg" xmlns:xlink="http://www.w3.org/1999/xlink" x="0px" y="0px"
	 viewBox="0 0 480 480" style="enable-background:new 0 0 480 480;" xml:space="preserve">
<g transform="translate(0 -540.36)">
	<path style="fill:#D2D7D3;" d="M165.095,551.833c-19.955,0-36.021,16.065-36.021,36.021v385.012c0,11.65,5.48,21.968,14.008,28.544
		v-386.54H480v-27.016c0-19.955-16.065-36.021-36.021-36.021H165.095z"/>
	<g>
		<path style="fill:#ECF0F1;" d="M100.557,551.833h278.885c19.955,0,36.021,16.065,36.021,36.021v385.012
			c0,19.955-16.065,36.021-36.021,36.021H100.557c-19.955,0-36.021-16.065-36.021-36.021V587.854
			C64.537,567.899,80.602,551.833,100.557,551.833z"/>
		<path style="fill:#ECF0F1;" d="M109.563,551.833h305.9v409.026h-305.9L109.563,551.833z"/>
		<path style="fill:#ECF0F1;" d="M415.463,551.833v36.021c0-18.688,14.089-33.962,32.269-35.827
			c-1.233-0.127-2.485-0.193-3.752-0.193H415.463z M129.074,960.859v12.007c0,11.65,5.48,21.968,14.008,28.544v-40.551H129.074z"/>
	</g>
	<g>
		<path style="fill:#D2D7D3;" d="M0,945.85v27.016c0,19.955,16.065,36.021,36.021,36.021h278.885
			c19.955,0,36.021-16.065,36.021-36.021v-27.053L0,945.85z"/>
		<path style="fill:#D2D7D3;" d="M350.926,1008.886v-36.021c0,18.688,14.089,33.962,32.269,35.827
			c-1.233,0.126-2.485,0.193-3.752,0.193H350.926z"/>
		<path style="fill:#D2D7D3;" d="M286.365,964.844h64.561v44.043h-64.561V964.844z"/>
	</g>
	<path style="fill:#D2D5D6;" d="M146.499,598.413c-0.439,0.013-0.853,0.203-1.149,0.528l-4.1,4.499l-7.993-0.176
		c-0.669-0.015-1.278,0.384-1.532,1.003l-2.316,5.628l-7.571,2.57c-0.633,0.215-1.068,0.796-1.096,1.464l-0.25,6.084l-6.236,5.001
		c-0.521,0.419-0.731,1.116-0.528,1.753l0.223,0.702l-0.539,0.432l1.718,5.398l-3.705,6.103c-0.347,0.572-0.307,1.298,0.102,1.827
		l0.057,0.074l-0.75,1.237l4.063,5.267l-1.212,6.082c-0.075,0.372-0.016,0.759,0.166,1.092l-0.438,2.199l6.043,3.828l1.391,9.046
		l6.986,1.53l4.381,7.991l0.16,44.699l21.333-25.44l21.673,25.438v0.002l0,0l-0.162-45.108l2.539-6.173l8.667-2.939l0.295-7.147
		l7.139-5.728l-0.616-1.937c0-0.001,0-0.001,0-0.002c0.354-0.424,0.466-1,0.299-1.526l-1.339-4.202l4.235-6.973l-0.829-1.073
		l0.234-0.387c0.347-0.572,0.307-1.298-0.102-1.827l-3.297-4.274l1.411-7.078l-0.471-0.299l0.201-1.008
		c0.131-0.656-0.156-1.325-0.721-1.683l-5.144-3.258l-1.214-7.901c-0.102-0.661-0.599-1.191-1.253-1.335l-5.947-1.303l-3.842-7.008
		c-0.322-0.588-0.972-0.916-1.636-0.827l-6.033,0.811l-6.009-5.273c-0.503-0.441-1.225-0.527-1.817-0.217l-5.392,2.824l-7.45-2.9
		c-0.202-0.078-0.417-0.116-0.633-0.109L146.499,598.413z"/>
	<path style="fill:#3498DB;" d="M132.133,656.866h43.005l0.242,67.407l-21.673-25.441l-21.332,25.441L132.133,656.866z"/>
	<path style="fill:#2980B9;" d="M153.627,656.866l0.071,41.977l0.01-0.011l21.673,25.441l-0.242-67.407H153.627z"/>
	<path style="fill:#2D72A0;" d="M153.626,656.866l0.043,24.945l7.398,2.881l4.82-5.287l9.15,0.201l0.182-0.441l-0.08-22.299H153.626
		L153.626,656.866z"/>
	<path style="fill:#3686BB;" d="M153.727,656.866l-0.043,24.945l-7.398,2.881l-4.82-5.287l-9.15,0.201l-0.182-0.441l0.08-22.299
		H153.727L153.727,656.866z"/>
	<g shape-rendering="auto" image-rendering="auto" color-rendering="auto" color-interpolation="sRGB">
		<path style="fill:#FFB61C;" d="M146.499,598.413c-0.438,0.013-0.853,0.203-1.148,0.527l-4.102,4.5l-7.992-0.178
			c-0.669-0.014-1.278,0.385-1.531,1.004l-2.316,5.629l-7.57,2.568c-0.633,0.215-1.068,0.797-1.096,1.465l-0.25,6.082l-6.236,5.002
			c-0.521,0.419-0.732,1.115-0.529,1.752l1.846,5.801l-4.148,6.834c-0.347,0.572-0.307,1.298,0.102,1.828l3.719,4.82l-1.563,7.84
			c-0.13,0.656,0.156,1.324,0.721,1.682l5.143,3.258l1.215,7.902c0.102,0.661,0.599,1.191,1.252,1.334l5.947,1.303l3.844,7.01
			c0.322,0.586,0.971,0.913,1.633,0.824l6.033-0.809l6.01,5.271c0.503,0.44,1.224,0.527,1.816,0.217l5.393-2.824l7.449,2.898
			c0.623,0.243,1.332,0.078,1.783-0.416l4.102-4.5l7.992,0.178c0.669,0.014,1.278-0.385,1.531-1.004l2.314-5.629l7.57-2.568
			c0.633-0.214,1.07-0.797,1.098-1.465l0.25-6.082l6.236-5.002c0.521-0.419,0.732-1.115,0.529-1.752l-1.846-5.801l4.148-6.834
			c0.347-0.572,0.307-1.298-0.102-1.828l-3.719-4.82l1.563-7.84c0.13-0.656-0.156-1.324-0.721-1.682l-5.143-3.258l-1.215-7.902
			c-0.102-0.661-0.599-1.191-1.252-1.334l-5.947-1.303l-3.844-7.01c-0.322-0.586-0.971-0.913-1.633-0.824l-6.033,0.809l-6.01-5.271
			c-0.287-0.252-0.653-0.395-1.035-0.402c-0.273-0.005-0.542,0.059-0.783,0.186l-5.391,2.824l-7.451-2.898
			C146.93,598.445,146.715,598.407,146.499,598.413L146.499,598.413z"/>
		<path style="fill:#F39C12;" d="M153.635,609.23c-17.1,0-31.008,13.908-31.008,31.008s13.908,31.008,31.008,31.008
			s31.008-13.908,31.008-31.008C184.643,623.138,170.735,609.23,153.635,609.23z"/>
		<path style="fill:#FCD116;" d="M153.635,613.545c14.768,0,26.693,11.925,26.693,26.693c0,14.768-11.925,26.693-26.693,26.693
			s-26.693-11.925-26.693-26.693S138.867,613.545,153.635,613.545z"/>
	</g>
	<path style="fill:#E9C31A;" d="M153.635,613.509c-14.762,0-26.728,11.967-26.728,26.728c0,14.762,11.967,26.728,26.728,26.728
		c14.762,0,26.728-11.967,26.728-26.728C180.363,625.476,168.396,613.509,153.635,613.509z M153.635,615.02
		c13.928,0,25.219,11.29,25.22,25.218c0,13.928-11.29,25.219-25.218,25.22c-0.001,0-0.001,0-0.002,0
		c-13.928-0.001-25.218-11.292-25.218-25.22C128.418,626.31,139.708,615.02,153.635,615.02z"/>
	<g>
		<path style="fill:#D2D7D3;" d="M219.082,607.213h150.086v11.006H219.082V607.213z"/>
		<path style="fill:#D2D7D3;" d="M219.082,656.34h150.086v11.006H219.082V656.34z"/>
		<path style="fill:#D2D7D3;" d="M219.082,705.467h150.086v11.006H219.082V705.467z"/>
		<path style="fill:#D2D7D3;" d="M110.832,754.594h258.336V765.6H110.832L110.832,754.594z"/>
		<path style="fill:#D2D7D3;" d="M110.832,803.721h258.336v11.006H110.832L110.832,803.721z"/>
		<path style="fill:#D2D7D3;" d="M110.832,852.848h258.336v11.006H110.832L110.832,852.848z"/>
		<path style="fill:#D2D7D3;" d="M319.139,901.975h50.029v11.006h-50.029V901.975z"/>
	</g>
	<g>
		
			<path shape-rendering="auto" image-rendering="auto" color-rendering="auto" color-interpolation="sRGB" style="fill:#BDC0C1;" d="
			M119.028,823.445c-2.289,0.2-3.796,2.378-3.602,4.598l4.682,53.52c0.194,2.219,2.056,4.103,4.345,3.902l241.245-21.106
			c2.289-0.2,3.796-2.378,3.602-4.598l-4.682-53.52c-0.194-2.219-2.056-4.103-4.345-3.902L119.028,823.445z M119.336,826.965
			l241.245-21.106c0.163-0.014,0.468,0.151,0.516,0.691l4.682,53.52c0.047,0.539-0.224,0.753-0.388,0.768l-241.245,21.106
			c-0.163,0.014-0.47-0.149-0.517-0.688l-4.682-53.52C118.899,827.196,119.173,826.98,119.336,826.965L119.336,826.965z"/>
		<path style="fill:#BDC0C1;" d="M138.251,851.26l7.032-0.615c1.678,1.745,2.609,3.659,2.791,5.743
			c0.212,2.423-0.5,4.536-2.137,6.339c-1.624,1.802-3.733,2.817-6.325,3.043c-3.367,0.295-6.338-0.733-8.912-3.083
			c-2.574-2.35-4.021-5.361-4.342-9.031c-0.322-3.682,0.603-6.851,2.775-9.507c2.184-2.657,5.069-4.142,8.655-4.456
			c1.223-0.107,2.602,0.023,4.135,0.389l0.645,7.377c-1.211-0.443-2.294-0.623-3.251-0.539c-1.732,0.151-3.102,0.815-4.11,1.989
			c-0.996,1.174-1.419,2.62-1.268,4.34c0.154,1.756,0.784,3.105,1.892,4.046c1.108,0.941,2.527,1.335,4.26,1.184
			c1.102-0.096,1.625-0.466,1.569-1.108c-0.043-0.484-0.427-0.695-1.154-0.631l-1.762,0.154L138.251,851.26L138.251,851.26z"/>
		<path style="fill:#BDC0C1;" d="M169.034,837.581l1.407,16.08c0.248,2.834-0.402,5.174-1.949,7.018
			c-1.535,1.843-3.708,2.888-6.518,3.134c-2.798,0.245-5.014-0.391-6.648-1.908c-1.622-1.518-2.568-3.822-2.838-6.91l-1.386-15.844
			l7.377-0.645l1.385,15.826c0.132,1.514,0.738,2.224,1.816,2.13c1.042-0.091,1.496-0.894,1.364-2.408l-1.385-15.826
			L169.034,837.581L169.034,837.581z"/>
		<path style="fill:#BDC0C1;" d="M185.627,848.58l0.572,6.541l-2.126,0.186l0.517,5.905l-7.377,0.645l-1.38-15.771
			c-0.267-3.053,0.355-5.493,1.868-7.322c1.523-1.842,3.793-2.895,6.809-3.159c2.907-0.254,5.125,0.327,6.652,1.743
			c1.527,1.404,2.43,3.706,2.709,6.903l1.402,16.026l-7.377,0.645l-1.359-15.535c-0.085-0.969-0.259-1.631-0.522-1.987
			c-0.263-0.355-0.691-0.507-1.285-0.455c-1.151,0.101-1.651,1.011-1.5,2.731l0.27,3.089L185.627,848.58L185.627,848.58z"/>
		<path style="fill:#BDC0C1;" d="M207.528,840.933l1.586,18.133l-7.377,0.645l-2.17-24.802l9.467-0.828
			c2.883-0.252,5.18,0.267,6.892,1.557c1.908,1.444,2.97,3.396,3.185,5.855c0.219,2.507-0.692,4.717-2.734,6.629l5.147,9.858
			l-7.74,0.677l-4.279-7.682l-0.558-6.378l0.581-0.051c1.551-0.136,2.306-1.188,2.151-2.202c-0.163-1.063-1.051-1.684-2.843-1.527
			L207.528,840.933L207.528,840.933z"/>
		<path style="fill:#BDC0C1;" d="M233.876,844.359l0.572,6.541l-2.126,0.186l0.517,5.905l-7.377,0.645l-1.38-15.771
			c-0.267-3.053,0.355-5.493,1.868-7.322c1.523-1.842,3.793-2.895,6.809-3.159c2.907-0.254,5.125,0.327,6.652,1.743
			c1.527,1.404,2.43,3.706,2.709,6.903l1.402,16.026l-7.377,0.645l-1.359-15.535c-0.085-0.969-0.259-1.631-0.522-1.987
			s-0.691-0.507-1.285-0.455c-1.151,0.101-1.651,1.011-1.5,2.731l0.27,3.089L233.876,844.359L233.876,844.359z"/>
		<path style="fill:#BDC0C1;" d="M249.477,855.535l-1.408-16.098c-0.247-2.822,0.397-5.155,1.933-6.998
			c1.547-1.844,3.726-2.889,6.537-3.135c2.798-0.245,5.008,0.392,6.63,1.91c1.634,1.517,2.586,3.82,2.856,6.909l1.386,15.844
			l-7.377,0.645l-1.386-15.844c-0.132-1.514-0.738-2.224-1.816-2.13c-1.042,0.091-1.496,0.894-1.364,2.408l1.386,15.844
			L249.477,855.535L249.477,855.535z"/>
		<path style="fill:#BDC0C1;" d="M283.175,834.772l1.547,17.679l-7.377,0.645l-1.547-17.679l-5.651,0.494l-0.623-7.123l18.66-1.633
			l0.623,7.123L283.175,834.772z"/>
		<path style="fill:#BDC0C1;" d="M307.011,835.232l0.483,5.524l-4.815,0.421c-0.654,0.057-1.112,0.195-1.374,0.413
			c-0.25,0.217-0.354,0.556-0.314,1.016c0.046,0.521,0.215,0.854,0.509,0.999c0.292,0.133,0.869,0.162,1.729,0.087l4.96-0.434
			l0.62,7.086l-5.796,0.507c-2.725,0.238-4.866-0.227-6.42-1.397c-1.556-1.182-2.441-3.003-2.657-5.462l-0.85-9.721
			c-0.208-2.374,0.31-4.275,1.552-5.702c1.254-1.428,3.117-2.25,5.588-2.466l6.414-0.561l0.623,7.123l-4.706,0.412
			c-1.272,0.111-1.872,0.579-1.8,1.402c0.042,0.484,0.223,0.81,0.543,0.978c0.319,0.155,0.866,0.199,1.641,0.131L307.011,835.232z"
			/>
		<path style="fill:#BDC0C1;" d="M326.956,833.487l0.483,5.524l-4.815,0.421c-0.654,0.057-1.112,0.195-1.374,0.413
			c-0.25,0.217-0.354,0.556-0.314,1.016c0.046,0.521,0.215,0.854,0.509,0.999c0.292,0.133,0.869,0.162,1.729,0.087l4.96-0.434
			l0.62,7.086l-5.796,0.507c-2.725,0.238-4.866-0.227-6.421-1.397c-1.556-1.182-2.441-3.003-2.657-5.462l-0.85-9.721
			c-0.208-2.374,0.31-4.275,1.552-5.702c1.254-1.428,3.117-2.25,5.588-2.466l6.414-0.561l0.623,7.123l-4.706,0.412
			c-1.272,0.111-1.872,0.579-1.8,1.402c0.042,0.485,0.223,0.81,0.543,0.978c0.319,0.155,0.866,0.199,1.641,0.131L326.956,833.487
			L326.956,833.487z"/>
		<path style="fill:#BDC0C1;" d="M340.83,829.728l1.547,17.679L335,848.053l-2.17-24.802l9.612-0.841
			c4.215-0.369,7.6,0.299,10.154,2.004c3.035,2.041,4.724,5.024,5.067,8.949c0.329,3.755-0.615,6.926-2.83,9.512
			c-2.215,2.586-5.23,4.046-9.046,4.38c-0.448,0.039-1.183,0.079-2.205,0.12l-0.637-7.286l1.181-0.103
			c4.3-0.376,6.293-2.363,5.978-5.961c-0.296-3.38-2.557-4.884-6.785-4.515L340.83,829.728L340.83,829.728z"/>
	</g>
	<g>
		
			<path shape-rendering="auto" image-rendering="auto" color-rendering="auto" color-interpolation="sRGB" style="fill:#EA6153;" d="
			M117.759,822.509c-2.289,0.2-3.795,2.38-3.601,4.599l4.682,53.518c0.194,2.219,2.056,4.104,4.345,3.904l241.244-21.106
			c2.289-0.2,3.795-2.38,3.601-4.599l-4.682-53.518c-0.194-2.219-2.056-4.104-4.345-3.904L117.759,822.509z M118.068,826.03
			l241.244-21.106c0.163-0.014,0.47,0.151,0.517,0.69l4.682,53.518c0.047,0.539-0.226,0.755-0.389,0.769l-241.244,21.106
			c-0.163,0.014-0.468-0.151-0.515-0.69L117.68,826.8C117.633,826.261,117.904,826.045,118.068,826.03z"/>
		<path style="fill:#EA6153;" d="M137.32,850.535l7.032-0.615c1.678,1.745,2.609,3.659,2.791,5.743
			c0.212,2.423-0.5,4.536-2.137,6.339c-1.624,1.802-3.733,2.817-6.325,3.043c-3.367,0.295-6.338-0.733-8.912-3.083
			c-2.574-2.35-4.021-5.361-4.342-9.031c-0.322-3.682,0.603-6.851,2.775-9.507c2.184-2.657,5.069-4.142,8.655-4.456
			c1.223-0.107,2.602,0.023,4.135,0.389l0.645,7.377c-1.211-0.443-2.294-0.623-3.251-0.539c-1.732,0.152-3.102,0.815-4.11,1.989
			c-0.996,1.173-1.419,2.62-1.268,4.34c0.154,1.756,0.784,3.105,1.892,4.046s2.527,1.335,4.26,1.184
			c1.102-0.096,1.625-0.466,1.569-1.108c-0.043-0.485-0.427-0.695-1.154-0.631l-1.762,0.154L137.32,850.535L137.32,850.535z"/>
		<path style="fill:#EA6153;" d="M168.103,836.856l1.407,16.08c0.248,2.834-0.402,5.174-1.949,7.018
			c-1.535,1.843-3.708,2.888-6.518,3.134c-2.798,0.245-5.014-0.391-6.648-1.908c-1.622-1.518-2.568-3.822-2.838-6.91l-1.386-15.844
			l7.377-0.645l1.385,15.826c0.132,1.514,0.738,2.224,1.816,2.13c1.042-0.091,1.496-0.894,1.364-2.408l-1.385-15.826
			L168.103,836.856L168.103,836.856z"/>
		<path style="fill:#EA6153;" d="M184.696,847.855l0.572,6.541l-2.126,0.186l0.517,5.905l-7.377,0.645l-1.38-15.771
			c-0.267-3.052,0.355-5.493,1.868-7.322c1.523-1.842,3.793-2.895,6.809-3.159c2.907-0.254,5.125,0.327,6.652,1.743
			c1.527,1.404,2.43,3.706,2.709,6.903l1.402,16.026l-7.377,0.645l-1.359-15.535c-0.085-0.969-0.259-1.631-0.522-1.987
			c-0.263-0.355-0.691-0.507-1.285-0.455c-1.151,0.101-1.651,1.011-1.5,2.731l0.27,3.089L184.696,847.855L184.696,847.855z"/>
		<path style="fill:#EA6153;" d="M206.597,840.208l1.586,18.133l-7.377,0.645l-2.17-24.802l9.467-0.828
			c2.883-0.252,5.18,0.267,6.892,1.557c1.908,1.444,2.97,3.396,3.185,5.855c0.219,2.507-0.692,4.717-2.734,6.629l5.147,9.858
			l-7.74,0.677l-4.279-7.682l-0.558-6.378l0.581-0.051c1.551-0.136,2.268-0.87,2.151-2.202c-0.103-1.175-1.051-1.684-2.843-1.527
			L206.597,840.208L206.597,840.208z"/>
		<path style="fill:#EA6153;" d="M232.945,843.633l0.572,6.541l-2.126,0.186l0.517,5.905l-7.377,0.645l-1.38-15.771
			c-0.267-3.052,0.355-5.493,1.868-7.322c1.523-1.842,3.793-2.895,6.809-3.159c2.907-0.254,5.125,0.327,6.652,1.743
			c1.527,1.404,2.43,3.706,2.709,6.903l1.402,16.026l-7.377,0.645l-1.359-15.535c-0.085-0.969-0.259-1.631-0.522-1.987
			c-0.263-0.355-0.691-0.507-1.285-0.455c-1.151,0.101-1.651,1.011-1.5,2.731l0.27,3.089L232.945,843.633L232.945,843.633z"/>
		<path style="fill:#EA6153;" d="M248.546,854.81l-1.408-16.098c-0.247-2.822,0.397-5.155,1.933-6.998
			c1.547-1.844,3.726-2.889,6.537-3.135c2.798-0.245,5.008,0.392,6.63,1.91c1.634,1.517,2.586,3.82,2.856,6.909l1.386,15.844
			l-7.377,0.645l-1.386-15.844c-0.132-1.514-0.738-2.224-1.816-2.13c-1.042,0.091-1.496,0.894-1.364,2.408l1.386,15.844
			L248.546,854.81z"/>
		<path style="fill:#EA6153;" d="M282.244,834.047l1.547,17.679l-7.377,0.645l-1.547-17.679l-5.651,0.494l-0.623-7.123l18.66-1.633
			l0.623,7.123L282.244,834.047z"/>
		<path style="fill:#EA6153;" d="M306.08,834.507l0.483,5.524l-4.815,0.421c-0.654,0.057-1.112,0.195-1.374,0.413
			c-0.25,0.217-0.354,0.556-0.314,1.016c0.046,0.521,0.215,0.854,0.509,0.999c0.292,0.133,0.869,0.162,1.729,0.087l4.96-0.434
			l0.62,7.086l-5.796,0.507c-2.725,0.238-4.866-0.227-6.42-1.397c-1.556-1.182-2.441-3.003-2.657-5.462l-0.85-9.721
			c-0.208-2.374,0.31-4.275,1.552-5.702c1.254-1.428,3.117-2.25,5.588-2.466l6.414-0.561l0.623,7.123l-4.706,0.412
			c-1.272,0.111-1.872,0.579-1.8,1.402c0.042,0.485,0.223,0.81,0.543,0.978c0.319,0.155,0.866,0.199,1.641,0.131L306.08,834.507
			L306.08,834.507z"/>
		<path style="fill:#EA6153;" d="M326.025,832.762l0.483,5.524l-4.815,0.421c-0.654,0.057-1.112,0.195-1.374,0.413
			c-0.25,0.217-0.354,0.556-0.314,1.016c0.046,0.521,0.215,0.854,0.509,0.999c0.292,0.133,0.869,0.162,1.729,0.087l4.96-0.434
			l0.62,7.086l-5.796,0.507c-2.725,0.238-4.866-0.227-6.421-1.397c-1.556-1.182-2.441-3.003-2.657-5.462l-0.85-9.721
			c-0.208-2.374,0.31-4.275,1.552-5.702c1.254-1.428,3.117-2.25,5.588-2.466l6.414-0.561l0.623,7.123l-4.706,0.412
			c-1.272,0.111-1.872,0.579-1.8,1.402c0.042,0.485,0.223,0.81,0.543,0.978c0.319,0.155,0.866,0.199,1.641,0.131L326.025,832.762
			L326.025,832.762z"/>
		<path style="fill:#EA6153;" d="M339.899,829.003l1.547,17.679l-7.377,0.645l-2.17-24.802l9.612-0.841
			c4.215-0.369,7.6,0.299,10.154,2.004c3.035,2.041,4.724,5.024,5.067,8.949c0.329,3.755-0.615,6.926-2.83,9.512
			c-2.215,2.586-5.23,4.046-9.046,4.38c-0.448,0.039-1.183,0.079-2.205,0.12l-0.637-7.286l1.181-0.103
			c4.3-0.376,6.293-2.363,5.978-5.961c-0.296-3.38-2.557-4.884-6.785-4.515L339.899,829.003L339.899,829.003z"/>
	</g>
</g>
<g>
</g>
<g>
</g>
<g>
</g>
<g>
</g>
<g>
</g>
<g>
</g>
<g>
</g>
<g>
</g>
<g>
</g>
<g>
</g>
<g>
</g>
<g>
</g>
<g>
</g>
<g>
</g>
<g>
</g>
</svg>
